<?xml version="1.0" encoding="UTF-8" standalone="no"?>
<!DOCTYPE svg PUBLIC "-//W3C//DTD SVG 1.1//EN" "http://www.w3.org/Graphics/SVG/1.1/DTD/svg11.dtd">
<svg width="100%" height="100%" viewBox="0 0 33 32" version="1.1" xmlns="http://www.w3.org/2000/svg" xmlns:xlink="http://www.w3.org/1999/xlink" xml:space="preserve" xmlns:serif="http://www.serif.com/" style="fill-rule:evenodd;clip-rule:evenodd;stroke-linejoin:round;stroke-miterlimit:2;">
    <g transform="matrix(1,0,0,1,-205,0)">
        <g id="Generic-Link" serif:id="Generic Link" transform="matrix(1,0,0,1,-204.962,0)">
            <rect x="410" y="0" width="32" height="32" style="fill-opacity:0;"/>
            <g transform="matrix(1,0,0,1,204.962,0)">
                <path d="M221.038,0C229.859,0 237.021,7.162 237.021,15.983C237.021,24.804 229.859,31.966 221.038,31.966C212.217,31.966 205.055,24.804 205.055,15.983C205.055,7.162 212.217,0 221.038,0ZM211.469,23.568L209.699,20.503C208.983,19.263 209.408,17.674 210.649,16.958C210.649,16.958 219.553,11.817 219.553,11.817C220.793,11.101 222.382,11.527 223.098,12.767L224.789,15.696L223.358,16.522L221.668,13.593C221.407,13.142 220.83,12.987 220.379,13.248C220.379,13.248 211.475,18.388 211.475,18.388C211.024,18.649 210.869,19.226 211.129,19.677L212.899,22.742C213.159,23.193 213.737,23.348 214.188,23.088L218.602,20.54C219.063,21.004 219.632,21.33 220.245,21.498L215.014,24.518C213.773,25.235 212.185,24.809 211.469,23.568ZM217.287,16.304L218.718,15.478L220.409,18.407C220.669,18.858 221.247,19.013 221.698,18.752C221.698,18.752 230.601,13.612 230.601,13.612C231.052,13.351 231.207,12.774 230.947,12.323L229.177,9.258C228.917,8.807 228.339,8.652 227.888,8.912L223.474,11.46C223.014,10.996 222.444,10.67 221.831,10.502L227.062,7.482C228.303,6.765 229.891,7.191 230.608,8.432L232.377,11.497C233.093,12.737 232.668,14.326 231.427,15.042C231.427,15.042 222.523,20.183 222.523,20.183C221.283,20.899 219.694,20.473 218.978,19.233L217.287,16.304Z" style="fill:white;"/>
            </g>
        </g>
    </g>
</svg>
