<?xml version="1.0" encoding="UTF-8" standalone="no"?>
<!DOCTYPE svg PUBLIC "-//W3C//DTD SVG 1.1//EN" "http://www.w3.org/Graphics/SVG/1.1/DTD/svg11.dtd">
<svg width="100%" height="100%" viewBox="0 0 33 32" version="1.1" xmlns="http://www.w3.org/2000/svg" xmlns:xlink="http://www.w3.org/1999/xlink" xml:space="preserve" xmlns:serif="http://www.serif.com/" style="fill-rule:evenodd;clip-rule:evenodd;stroke-linejoin:round;stroke-miterlimit:2;">
    <g transform="matrix(1,0,0,1,-164,0)">
        <g id="Git" transform="matrix(1,0,0,1,-163.97,0)">
            <rect x="328" y="0" width="32" height="32" style="fill-opacity:0;"/>
            <path d="M336.839,1.697C338.992,0.61 341.425,0 344,0C352.821,0 359.983,7.162 359.983,15.983C359.983,24.804 352.821,31.966 344,31.966C335.179,31.966 328.017,24.804 328.017,15.983C328.017,10.676 330.609,5.97 334.597,3.065L337.908,6.377C337.437,7.505 337.657,8.853 338.576,9.771C338.877,10.072 339.223,10.297 339.593,10.448L339.593,21.572C339.223,21.724 338.876,21.95 338.576,22.25C337.363,23.462 337.363,25.427 338.576,26.641C339.788,27.853 341.754,27.853 342.966,26.641C344.179,25.427 344.179,23.462 342.966,22.25C342.72,22.004 342.441,21.809 342.146,21.662L342.146,10.641L346.334,14.829C345.872,15.953 346.098,17.293 347.01,18.206C348.223,19.419 350.188,19.419 351.402,18.206C352.614,16.993 352.614,15.028 351.402,13.815C350.533,12.946 349.281,12.704 348.194,13.078L343.703,8.588C344.078,7.501 343.834,6.248 342.966,5.38C342.103,4.517 340.862,4.271 339.779,4.637L336.839,1.697Z" style="fill:white;"/>
        </g>
    </g>
</svg>
