<?xml version="1.0" encoding="UTF-8" standalone="no"?>
<!DOCTYPE svg PUBLIC "-//W3C//DTD SVG 1.1//EN" "http://www.w3.org/Graphics/SVG/1.1/DTD/svg11.dtd">
<svg width="100%" height="100%" viewBox="0 0 33 32" version="1.1" xmlns="http://www.w3.org/2000/svg" xmlns:xlink="http://www.w3.org/1999/xlink" xml:space="preserve" xmlns:serif="http://www.serif.com/" style="fill-rule:evenodd;clip-rule:evenodd;stroke-linejoin:round;stroke-miterlimit:2;">
    <g transform="matrix(1,0,0,1,-41,0)">
        <g id="LinkedIn" transform="matrix(1,0,0,1,-40.9924,0)">
            <rect x="82" y="0" width="32" height="32" style="fill-opacity:0;"/>
            <g id="LI-In-Bug" transform="matrix(0.248488,0,0,0.248488,98,16)">
                <g transform="matrix(1,0,0,1,-64.4401,-64.3201)">
                    <path id="Selection" d="M8.4,0.022C7.303,0.31 6.288,0.542 5.28,1.051C-0.602,4.01 0.24,9.182 0.24,14.64L0.24,119.28C0.25,125.189 4.658,128.631 10.32,128.64L118.56,128.64C124.205,128.631 128.631,125.172 128.64,119.28L128.64,9.36C128.631,3.451 124.222,0.01 118.56,0.022L8.4,0.022ZM27.84,17.83C37.152,16.966 42.999,27.372 37.896,35.04C37.131,36.187 35.962,37.31 34.8,38.054C33.29,39.019 31.774,39.54 30,39.77C22.051,40.805 15.73,32.666 18.372,25.2C19.944,20.755 23.34,18.516 27.84,17.83ZM109.68,109.44L90.72,109.44L90.72,77.04L90.521,74.88C90.187,71.434 89.729,67.822 86.859,65.443C82.795,62.076 75.631,63 72.317,66.96C70.356,69.305 69.396,73.294 69.36,76.32L69.36,109.44L50.4,109.44L50.4,48.24L68.4,48.24L68.4,56.64L72.281,52.219C75.775,48.91 80.599,46.807 85.44,46.8C91.752,46.79 98.412,47.374 103.159,52.121C107.515,56.474 108.838,62.978 109.431,68.88L109.431,71.28L109.68,74.16L109.68,109.44ZM38.16,48.24L38.16,109.44L19.2,109.44L19.2,48.24L38.16,48.24Z" style="fill:white;fill-rule:nonzero;"/>
                </g>
            </g>
        </g>
    </g>
</svg>
