<?xml version="1.0" encoding="UTF-8" standalone="no"?>
<!DOCTYPE svg PUBLIC "-//W3C//DTD SVG 1.1//EN" "http://www.w3.org/Graphics/SVG/1.1/DTD/svg11.dtd">
<svg width="100%" height="100%" viewBox="0 0 33 32" version="1.1" xmlns="http://www.w3.org/2000/svg" xmlns:xlink="http://www.w3.org/1999/xlink" xml:space="preserve" xmlns:serif="http://www.serif.com/" style="fill-rule:evenodd;clip-rule:evenodd;stroke-linejoin:round;stroke-miterlimit:2;">
    <g transform="matrix(1,0,0,1,-123,0)">
        <g id="Website" transform="matrix(1,0,0,1,-122.977,0)">
            <rect x="246" y="0" width="32" height="32" style="fill-opacity:0;"/>
            <path d="M262,0C270.821,0 277.983,7.162 277.983,15.983C277.983,24.804 270.821,31.966 262,31.966C253.179,31.966 246.017,24.804 246.017,15.983C246.017,7.162 253.179,0 262,0ZM262,5.242C262.412,5.243 262.825,5.266 263.235,5.312C263.862,5.384 264.482,5.511 265.087,5.692C265.783,5.901 266.458,6.181 267.097,6.526C267.762,6.885 268.389,7.314 268.965,7.804C269.502,8.261 269.994,8.77 270.432,9.322C270.677,9.63 270.904,9.952 271.114,10.286L271.122,10.298C272.158,11.951 272.758,13.906 272.758,16C272.758,21.937 267.937,26.758 262,26.758C256.063,26.758 251.242,21.937 251.242,16L251.242,16C251.242,13.906 251.842,11.951 252.878,10.298L252.878,10.298C254.782,7.262 258.157,5.242 262,5.242ZM265.912,22.025L262.75,22.025L262.75,25.228C263.218,25.19 263.676,25.118 264.121,25.013C264.323,24.79 265.175,23.785 265.912,22.025ZM261.25,25.228L261.25,22.025L258.088,22.025C258.825,23.785 259.678,24.79 259.879,25.013C260.325,25.118 260.782,25.19 261.25,25.228ZM269.027,22.025L267.528,22.025C267.239,22.802 266.92,23.47 266.612,24.027C267.527,23.5 268.343,22.821 269.027,22.025ZM256.472,22.025L254.973,22.025C255.657,22.821 256.473,23.5 257.388,24.027C257.08,23.47 256.761,22.802 256.472,22.025ZM255.445,16.75L252.772,16.75C252.882,18.113 253.287,19.392 253.923,20.525L255.998,20.525C255.709,19.426 255.5,18.167 255.445,16.75ZM257.557,20.525L261.25,20.525L261.25,16.75L256.946,16.75C257.008,18.193 257.243,19.452 257.557,20.525ZM267.054,16.75L262.75,16.75L262.75,20.525L266.443,20.525C266.756,19.453 266.992,18.193 267.054,16.75ZM271.228,16.75L268.555,16.75C268.5,18.167 268.291,19.425 268.002,20.525L270.077,20.525C270.713,19.392 271.118,18.113 271.228,16.75ZM256.006,11.444L253.941,11.444C253.294,12.585 252.883,13.875 252.772,15.25L255.445,15.25C255.501,13.82 255.713,12.55 256.006,11.444ZM256.946,15.25L261.25,15.25L261.25,11.444L257.566,11.444C257.248,12.523 257.009,13.793 256.946,15.25ZM266.434,11.444L262.75,11.444L262.75,15.25L267.054,15.25C266.991,13.793 266.752,12.523 266.434,11.444ZM270.059,11.444L267.994,11.444C268.287,12.55 268.499,13.82 268.555,15.25L271.228,15.25C271.117,13.875 270.706,12.584 270.059,11.444ZM257.388,7.973C256.485,8.493 255.678,9.161 255,9.944L256.483,9.944C256.769,9.18 257.084,8.522 257.388,7.973ZM261.25,6.772C260.782,6.81 260.324,6.882 259.879,6.987C259.679,7.209 258.835,8.203 258.101,9.944L261.25,9.944L261.25,6.772ZM262.75,6.772L262.75,9.944L265.899,9.944C265.165,8.203 264.321,7.209 264.121,6.987C263.675,6.882 263.218,6.81 262.75,6.772ZM266.612,7.973C266.916,8.522 267.231,9.18 267.517,9.944L269,9.944C268.322,9.161 267.515,8.493 266.612,7.973Z" style="fill:white;"/>
        </g>
    </g>
</svg>
