<?xml version="1.0" encoding="UTF-8" standalone="no"?>
<!DOCTYPE svg PUBLIC "-//W3C//DTD SVG 1.1//EN" "http://www.w3.org/Graphics/SVG/1.1/DTD/svg11.dtd">
<svg width="100%" height="100%" viewBox="0 0 800 600" version="1.1" xmlns="http://www.w3.org/2000/svg" xmlns:xlink="http://www.w3.org/1999/xlink" xml:space="preserve" xmlns:serif="http://www.serif.com/" style="fill-rule:evenodd;clip-rule:evenodd;stroke-linecap:round;stroke-linejoin:round;stroke-miterlimit:1.5;">
    <rect id="Artboard1" x="0" y="0" width="800" height="600" style="fill:rgb(25,29,43);fill-opacity:0;"/>
    <g id="Artboard11" serif:id="Artboard1">
        <g id="Sign" transform="matrix(0.973724,0.227731,-0.227731,0.973724,-138.055,-88.838)">
            <g>
                <g transform="matrix(0.326241,0,0,0.418803,393.957,217.921)">
                    <path d="M566.327,199.115C566.327,185.937 552.593,175.237 535.675,175.237L489.483,175.237C472.565,175.237 458.831,185.937 458.831,199.115L458.831,329.759C458.831,342.937 472.565,353.636 489.483,353.636L535.675,353.636C552.593,353.636 566.327,342.937 566.327,329.759L566.327,199.115Z" style="fill:none;stroke:white;stroke-width:7.99px;"/>
                </g>
                <g transform="matrix(1,0,0,1,-2.39827,-4.71848)">
                    <circle cx="556.463" cy="311.224" r="4.718" style="fill:none;stroke:white;stroke-width:3px;"/>
                </g>
                <g transform="matrix(1,0,0,1,-2.39827,11.3506)">
                    <circle cx="556.463" cy="311.224" r="4.718" style="fill:none;stroke:white;stroke-width:3px;"/>
                </g>
                <path d="M567.765,366.025L567.765,445.648" style="fill:none;stroke:white;stroke-width:3px;"/>
                <g transform="matrix(1,0,0,0.392106,-6.58358,222.505)">
                    <path d="M567.765,366.025L567.765,445.648" style="fill:none;stroke:white;stroke-width:3.95px;"/>
                </g>
            </g>
            <g>
                <g transform="matrix(1,0,0,0.711325,0,-15.4571)">
                    <rect x="556.855" y="151.359" width="8.653" height="279.903" style="fill:none;stroke:white;stroke-width:3.46px;"/>
                </g>
                <g>
                    <path d="M498.219,131.029L483.776,117.367L498.219,103.705L556.855,103.705L556.855,131.029L498.219,131.029Z" style="fill:none;stroke:white;stroke-width:3px;"/>
                    <g transform="matrix(1,0,0,1,41.5325,15.6936)">
                        <g transform="matrix(24,0,0,24,463.105,110.061)">
                            <path d="M0.263,0.015C0.219,0.015 0.175,0.011 0.132,0.002C0.089,-0.006 0.053,-0.017 0.025,-0.032L0.025,-0.191C0.061,-0.172 0.099,-0.158 0.138,-0.149C0.177,-0.14 0.214,-0.135 0.249,-0.135C0.282,-0.135 0.306,-0.14 0.323,-0.15C0.34,-0.16 0.348,-0.174 0.348,-0.193C0.348,-0.207 0.344,-0.219 0.335,-0.23C0.326,-0.24 0.312,-0.249 0.295,-0.258C0.278,-0.267 0.251,-0.279 0.214,-0.294C0.149,-0.321 0.102,-0.352 0.073,-0.385C0.044,-0.418 0.029,-0.459 0.029,-0.508C0.029,-0.548 0.04,-0.584 0.063,-0.615C0.085,-0.646 0.116,-0.671 0.156,-0.688C0.196,-0.705 0.242,-0.714 0.294,-0.714C0.337,-0.714 0.375,-0.711 0.408,-0.704C0.441,-0.697 0.473,-0.687 0.504,-0.672L0.504,-0.517C0.445,-0.548 0.386,-0.563 0.327,-0.563C0.295,-0.563 0.27,-0.558 0.251,-0.548C0.232,-0.537 0.222,-0.522 0.222,-0.503C0.222,-0.484 0.232,-0.468 0.251,-0.456C0.27,-0.444 0.306,-0.428 0.358,-0.407C0.405,-0.388 0.442,-0.369 0.469,-0.35C0.495,-0.331 0.514,-0.31 0.526,-0.285C0.538,-0.26 0.544,-0.229 0.544,-0.191C0.544,-0.126 0.521,-0.076 0.473,-0.04C0.427,-0.003 0.356,0.015 0.263,0.015Z" style="fill:white;fill-rule:nonzero;"/>
                        </g>
                        <g transform="matrix(24,0,0,24,476.761,110.061)">
                            <path d="M0.401,0.015C0.33,0.015 0.267,0 0.21,-0.031C0.153,-0.062 0.108,-0.105 0.075,-0.16C0.042,-0.215 0.025,-0.278 0.025,-0.349C0.025,-0.42 0.042,-0.484 0.075,-0.539C0.108,-0.594 0.153,-0.637 0.21,-0.668C0.267,-0.699 0.33,-0.714 0.401,-0.714C0.471,-0.714 0.535,-0.699 0.592,-0.668C0.649,-0.637 0.693,-0.594 0.726,-0.539C0.759,-0.484 0.775,-0.42 0.775,-0.349C0.775,-0.278 0.759,-0.215 0.726,-0.16C0.693,-0.105 0.649,-0.062 0.592,-0.031C0.535,0 0.471,0.015 0.401,0.015ZM0.401,-0.151C0.436,-0.151 0.469,-0.159 0.498,-0.175C0.527,-0.191 0.551,-0.214 0.568,-0.244C0.585,-0.274 0.594,-0.309 0.594,-0.349C0.594,-0.389 0.586,-0.424 0.569,-0.454C0.552,-0.483 0.528,-0.506 0.499,-0.523C0.47,-0.539 0.437,-0.547 0.401,-0.547C0.364,-0.547 0.331,-0.539 0.302,-0.523C0.273,-0.506 0.25,-0.483 0.233,-0.454C0.216,-0.424 0.207,-0.389 0.207,-0.349C0.207,-0.309 0.216,-0.274 0.233,-0.244C0.25,-0.214 0.273,-0.191 0.303,-0.175C0.332,-0.159 0.365,-0.151 0.401,-0.151Z" style="fill:white;fill-rule:nonzero;"/>
                        </g>
                        <g transform="matrix(24,0,0,24,495.961,110.061)">
                            <path d="M0.045,-0.699L0.222,-0.699L0.222,-0.149L0.526,-0.149L0.526,0L0.045,0L0.045,-0.699Z" style="fill:white;fill-rule:nonzero;"/>
                        </g>
                    </g>
                </g>
                <g>
                    <g transform="matrix(-1,0,0,1,1122.36,24.5916)">
                        <path d="M404.38,131.029L389.938,117.367L404.38,103.705L556.855,103.705L556.855,131.029L404.38,131.029Z" style="fill:none;stroke:white;stroke-width:3px;"/>
                    </g>
                    <g transform="matrix(1,0,0,1,107.422,40.2852)">
                        <g transform="matrix(24,0,0,24,463.105,110.061)">
                            <path d="M0.305,-0.699L0.479,-0.699L0.758,0L0.577,0L0.521,-0.144L0.263,-0.144L0.207,0L0.025,0L0.305,-0.699ZM0.477,-0.28L0.392,-0.515L0.306,-0.28L0.477,-0.28Z" style="fill:white;fill-rule:nonzero;"/>
                        </g>
                        <g transform="matrix(24,0,0,24,481.897,110.061)">
                            <rect x="0.025" y="-0.373" width="0.356" height="0.14" style="fill:white;fill-rule:nonzero;"/>
                        </g>
                        <g transform="matrix(24,0,0,24,491.641,110.061)">
                            <path d="M0.406,0.015C0.33,0.015 0.263,0 0.205,-0.029C0.148,-0.058 0.103,-0.101 0.072,-0.156C0.041,-0.211 0.025,-0.275 0.025,-0.349C0.025,-0.423 0.041,-0.488 0.072,-0.543C0.103,-0.598 0.148,-0.64 0.205,-0.67C0.263,-0.699 0.33,-0.714 0.406,-0.714C0.456,-0.714 0.501,-0.709 0.54,-0.699C0.579,-0.689 0.616,-0.673 0.649,-0.652L0.649,-0.484C0.62,-0.507 0.587,-0.524 0.55,-0.535C0.513,-0.546 0.47,-0.551 0.422,-0.551C0.353,-0.551 0.3,-0.533 0.263,-0.498C0.226,-0.462 0.207,-0.412 0.207,-0.349C0.207,-0.286 0.226,-0.236 0.264,-0.2C0.301,-0.164 0.354,-0.146 0.422,-0.146C0.47,-0.146 0.513,-0.152 0.551,-0.163C0.589,-0.174 0.624,-0.192 0.657,-0.217L0.657,-0.05C0.594,-0.007 0.51,0.015 0.406,0.015Z" style="fill:white;fill-rule:nonzero;"/>
                        </g>
                        <g transform="matrix(24,0,0,24,508.009,110.061)">
                            <path d="M0.045,-0.699L0.541,-0.699L0.541,-0.55L0.222,-0.55L0.222,-0.419L0.455,-0.419L0.455,-0.28L0.222,-0.28L0.222,-0.149L0.541,-0.149L0.541,0L0.045,0L0.045,-0.699Z" style="fill:white;fill-rule:nonzero;"/>
                        </g>
                        <g transform="matrix(24,0,0,24,521.593,110.061)">
                            <path d="M0.045,-0.699L0.22,-0.699L0.477,-0.283L0.477,-0.699L0.654,-0.699L0.654,0L0.48,0L0.222,-0.417L0.222,0L0.045,0L0.045,-0.699Z" style="fill:white;fill-rule:nonzero;"/>
                        </g>
                        <g transform="matrix(24,0,0,24,538.369,110.061)">
                            <path d="M0.207,-0.55L0.01,-0.55L0.01,-0.699L0.582,-0.699L0.582,-0.55L0.384,-0.55L0.384,0L0.207,0L0.207,-0.55Z" style="fill:white;fill-rule:nonzero;"/>
                        </g>
                        <g transform="matrix(24,0,0,24,549.577,110.061)">
                            <path d="M0.305,-0.699L0.479,-0.699L0.758,0L0.577,0L0.521,-0.144L0.263,-0.144L0.207,0L0.025,0L0.305,-0.699ZM0.477,-0.28L0.392,-0.515L0.306,-0.28L0.477,-0.28Z" style="fill:white;fill-rule:nonzero;"/>
                        </g>
                        <g transform="matrix(24,0,0,24,566.809,110.061)">
                            <path d="M0.358,0.015C0.253,0.015 0.173,-0.013 0.12,-0.07C0.067,-0.126 0.04,-0.2 0.04,-0.293L0.04,-0.699L0.217,-0.699L0.217,-0.291C0.217,-0.244 0.23,-0.209 0.255,-0.185C0.28,-0.161 0.314,-0.149 0.358,-0.149C0.402,-0.149 0.436,-0.161 0.461,-0.185C0.486,-0.209 0.498,-0.244 0.498,-0.291L0.498,-0.699L0.675,-0.699L0.675,-0.293C0.675,-0.2 0.649,-0.125 0.596,-0.069C0.543,-0.013 0.463,0.015 0.358,0.015Z" style="fill:white;fill-rule:nonzero;"/>
                        </g>
                        <g transform="matrix(24,0,0,24,583.969,110.061)">
                            <path d="M0.045,-0.699L0.359,-0.699C0.441,-0.699 0.505,-0.678 0.552,-0.637C0.598,-0.596 0.621,-0.536 0.621,-0.459C0.621,-0.407 0.61,-0.363 0.587,-0.326C0.564,-0.289 0.532,-0.262 0.491,-0.244L0.615,0L0.433,0L0.322,-0.219L0.222,-0.219L0.222,0L0.045,0L0.045,-0.699ZM0.328,-0.368C0.363,-0.368 0.391,-0.375 0.41,-0.389C0.429,-0.402 0.439,-0.426 0.439,-0.459C0.439,-0.494 0.43,-0.518 0.41,-0.531C0.392,-0.544 0.364,-0.55 0.328,-0.55L0.222,-0.55L0.222,-0.368L0.328,-0.368Z" style="fill:white;fill-rule:nonzero;"/>
                        </g>
                        <g transform="matrix(24,0,0,24,599.473,110.061)">
                            <rect x="0.045" y="-0.699" width="0.177" height="0.699" style="fill:white;fill-rule:nonzero;"/>
                        </g>
                    </g>
                </g>
            </g>
            <g>
                <g transform="matrix(0.835588,0,0,1,95.1477,0)">
                    <rect x="578.716" y="313.011" width="92.593" height="19.127" style="fill:none;stroke:white;stroke-width:3.26px;"/>
                </g>
                <g transform="matrix(0.681808,0,0,0.68027,191.262,87.0678)">
                    <rect x="578.716" y="313.011" width="92.593" height="19.127" style="fill:none;stroke:white;stroke-width:4.41px;"/>
                </g>
                <g transform="matrix(0.681808,0,0,0.68027,191.262,119.206)">
                    <rect x="578.716" y="313.011" width="92.593" height="19.127" style="fill:none;stroke:white;stroke-width:4.41px;"/>
                </g>
            </g>
            <g transform="matrix(0.906599,-0.421994,0.421994,0.906599,-55.8629,210.368)">
                <path d="M454.956,439.013L454.956,351.966C454.956,351.966 474.473,363.974 474.473,393.705C474.473,423.436 454.956,439.013 454.956,439.013Z" style="fill:none;stroke:white;stroke-width:3px;"/>
                <path d="M474.473,397.246L474.473,356.838L452.926,342.598L425.696,395.489L430.442,401.305L433.94,393.311L431.691,391.812L454.956,351.966" style="fill:none;stroke:white;stroke-width:3px;"/>
                <g transform="matrix(0.369468,0,0,1,299.17,0)">
                    <rect x="474.473" y="384.365" width="18.225" height="12.881" style="fill:none;stroke:white;stroke-width:3.98px;"/>
                </g>
            </g>
        </g>
        <g>
            <g transform="matrix(0.115284,-0.066559,0.066559,0.115284,74.9167,41.5549)">
                <path d="M177.675,186.471C177.675,201.47 181.143,227.437 187.308,233.602C193.473,239.768 219.44,243.236 234.439,243.236C219.44,243.236 193.473,246.704 187.308,252.869C181.143,259.034 177.675,285.001 177.675,300C177.675,285.001 174.207,259.034 168.041,252.869C161.876,246.704 135.909,243.236 120.91,243.236C135.909,243.236 161.876,239.768 168.041,233.602C174.207,227.437 177.675,201.47 177.675,186.471Z" style="fill:white;"/>
            </g>
            <g transform="matrix(0.172189,-0.0994134,0.0994134,0.172189,37.2663,199.83)">
                <path d="M177.675,186.471C177.675,201.47 181.143,227.437 187.308,233.602C193.473,239.768 219.44,243.236 234.439,243.236C219.44,243.236 193.473,246.704 187.308,252.869C181.143,259.034 177.675,285.001 177.675,300C177.675,285.001 174.207,259.034 168.041,252.869C161.876,246.704 135.909,243.236 120.91,243.236C135.909,243.236 161.876,239.768 168.041,233.602C174.207,227.437 177.675,201.47 177.675,186.471Z" style="fill:white;"/>
            </g>
            <g transform="matrix(0.115284,-0.066559,0.066559,0.115284,338.185,61.1033)">
                <path d="M177.675,186.471C177.675,201.47 181.143,227.437 187.308,233.602C193.473,239.768 219.44,243.236 234.439,243.236C219.44,243.236 193.473,246.704 187.308,252.869C181.143,259.034 177.675,285.001 177.675,300C177.675,285.001 174.207,259.034 168.041,252.869C161.876,246.704 135.909,243.236 120.91,243.236C135.909,243.236 161.876,239.768 168.041,233.602C174.207,227.437 177.675,201.47 177.675,186.471Z" style="fill:white;"/>
            </g>
            <g transform="matrix(0.115284,-0.066559,0.066559,0.115284,623.845,346.763)">
                <path d="M177.675,186.471C177.675,201.47 181.143,227.437 187.308,233.602C193.473,239.768 219.44,243.236 234.439,243.236C219.44,243.236 193.473,246.704 187.308,252.869C181.143,259.034 177.675,285.001 177.675,300C177.675,285.001 174.207,259.034 168.041,252.869C161.876,246.704 135.909,243.236 120.91,243.236C135.909,243.236 161.876,239.768 168.041,233.602C174.207,227.437 177.675,201.47 177.675,186.471Z" style="fill:white;"/>
            </g>
            <g transform="matrix(0.115284,-0.066559,0.066559,0.115284,357.734,556.389)">
                <path d="M177.675,186.471C177.675,201.47 181.143,227.437 187.308,233.602C193.473,239.768 219.44,243.236 234.439,243.236C219.44,243.236 193.473,246.704 187.308,252.869C181.143,259.034 177.675,285.001 177.675,300C177.675,285.001 174.207,259.034 168.041,252.869C161.876,246.704 135.909,243.236 120.91,243.236C135.909,243.236 161.876,239.768 168.041,233.602C174.207,227.437 177.675,201.47 177.675,186.471Z" style="fill:white;"/>
            </g>
            <g transform="matrix(0.172189,-0.0994134,0.0994134,0.172189,433.43,253.487)">
                <path d="M177.675,186.471C177.675,201.47 181.143,227.437 187.308,233.602C193.473,239.768 219.44,243.236 234.439,243.236C219.44,243.236 193.473,246.704 187.308,252.869C181.143,259.034 177.675,285.001 177.675,300C177.675,285.001 174.207,259.034 168.041,252.869C161.876,246.704 135.909,243.236 120.91,243.236C135.909,243.236 161.876,239.768 168.041,233.602C174.207,227.437 177.675,201.47 177.675,186.471Z" style="fill:white;"/>
            </g>
            <g transform="matrix(0.172189,-0.0994134,0.0994134,0.172189,692.087,243.713)">
                <path d="M177.675,186.471C177.675,201.47 181.143,227.437 187.308,233.602C193.473,239.768 219.44,243.236 234.439,243.236C219.44,243.236 193.473,246.704 187.308,252.869C181.143,259.034 177.675,285.001 177.675,300C177.675,285.001 174.207,259.034 168.041,252.869C161.876,246.704 135.909,243.236 120.91,243.236C135.909,243.236 161.876,239.768 168.041,233.602C174.207,227.437 177.675,201.47 177.675,186.471Z" style="fill:white;"/>
            </g>
            <g transform="matrix(0.115284,-0.066559,0.066559,0.115284,608.988,112.847)">
                <path d="M177.675,186.471C177.675,201.47 181.143,227.437 187.308,233.602C193.473,239.768 219.44,243.236 234.439,243.236C219.44,243.236 193.473,246.704 187.308,252.869C181.143,259.034 177.675,285.001 177.675,300C177.675,285.001 174.207,259.034 168.041,252.869C161.876,246.704 135.909,243.236 120.91,243.236C135.909,243.236 161.876,239.768 168.041,233.602C174.207,227.437 177.675,201.47 177.675,186.471Z" style="fill:white;"/>
            </g>
            <g transform="matrix(0.172189,-0.0994134,0.0994134,0.172189,452.979,98.7515)">
                <path d="M177.675,186.471C177.675,201.47 181.143,227.437 187.308,233.602C193.473,239.768 219.44,243.236 234.439,243.236C219.44,243.236 193.473,246.704 187.308,252.869C181.143,259.034 177.675,285.001 177.675,300C177.675,285.001 174.207,259.034 168.041,252.869C161.876,246.704 135.909,243.236 120.91,243.236C135.909,243.236 161.876,239.768 168.041,233.602C174.207,227.437 177.675,201.47 177.675,186.471Z" style="fill:white;"/>
            </g>
            <g transform="matrix(0.115284,-0.066559,0.066559,0.115284,244.401,224.714)">
                <path d="M177.675,186.471C177.675,201.47 181.143,227.437 187.308,233.602C193.473,239.768 219.44,243.236 234.439,243.236C219.44,243.236 193.473,246.704 187.308,252.869C181.143,259.034 177.675,285.001 177.675,300C177.675,285.001 174.207,259.034 168.041,252.869C161.876,246.704 135.909,243.236 120.91,243.236C135.909,243.236 161.876,239.768 168.041,233.602C174.207,227.437 177.675,201.47 177.675,186.471Z" style="fill:white;"/>
            </g>
            <g transform="matrix(0.115284,-0.066559,0.066559,0.115284,-5.01828,293.559)">
                <path d="M177.675,186.471C177.675,201.47 181.143,227.437 187.308,233.602C193.473,239.768 219.44,243.236 234.439,243.236C219.44,243.236 193.473,246.704 187.308,252.869C181.143,259.034 177.675,285.001 177.675,300C177.675,285.001 174.207,259.034 168.041,252.869C161.876,246.704 135.909,243.236 120.91,243.236C135.909,243.236 161.876,239.768 168.041,233.602C174.207,227.437 177.675,201.47 177.675,186.471Z" style="fill:white;"/>
            </g>
            <g transform="matrix(0.172189,-0.0994134,0.0994134,0.172189,161.635,398.54)">
                <path d="M177.675,186.471C177.675,201.47 181.143,227.437 187.308,233.602C193.473,239.768 219.44,243.236 234.439,243.236C219.44,243.236 193.473,246.704 187.308,252.869C181.143,259.034 177.675,285.001 177.675,300C177.675,285.001 174.207,259.034 168.041,252.869C161.876,246.704 135.909,243.236 120.91,243.236C135.909,243.236 161.876,239.768 168.041,233.602C174.207,227.437 177.675,201.47 177.675,186.471Z" style="fill:white;"/>
            </g>
            <g transform="matrix(0.172189,-0.0994134,0.0994134,0.172189,641.287,397.829)">
                <path d="M177.675,186.471C177.675,201.47 181.143,227.437 187.308,233.602C193.473,239.768 219.44,243.236 234.439,243.236C219.44,243.236 193.473,246.704 187.308,252.869C181.143,259.034 177.675,285.001 177.675,300C177.675,285.001 174.207,259.034 168.041,252.869C161.876,246.704 135.909,243.236 120.91,243.236C135.909,243.236 161.876,239.768 168.041,233.602C174.207,227.437 177.675,201.47 177.675,186.471Z" style="fill:white;"/>
            </g>
            <g transform="matrix(0.115284,-0.066559,0.066559,0.115284,487.628,59.4113)">
                <path d="M177.675,186.471C177.675,201.47 181.143,227.437 187.308,233.602C193.473,239.768 219.44,243.236 234.439,243.236C219.44,243.236 193.473,246.704 187.308,252.869C181.143,259.034 177.675,285.001 177.675,300C177.675,285.001 174.207,259.034 168.041,252.869C161.876,246.704 135.909,243.236 120.91,243.236C135.909,243.236 161.876,239.768 168.041,233.602C174.207,227.437 177.675,201.47 177.675,186.471Z" style="fill:white;"/>
            </g>
            <g transform="matrix(0.311118,-0.179624,0.179624,0.311118,318.692,427.845)">
                <path d="M177.675,186.471C177.675,201.47 181.143,227.437 187.308,233.602C193.473,239.768 219.44,243.236 234.439,243.236C219.44,243.236 193.473,246.704 187.308,252.869C181.143,259.034 177.675,285.001 177.675,300C177.675,285.001 174.207,259.034 168.041,252.869C161.876,246.704 135.909,243.236 120.91,243.236C135.909,243.236 161.876,239.768 168.041,233.602C174.207,227.437 177.675,201.47 177.675,186.471Z" style="fill:white;"/>
            </g>
            <g transform="matrix(0.311118,-0.179624,0.179624,0.311118,99.7798,100.097)">
                <path d="M177.675,186.471C177.675,201.47 181.143,227.437 187.308,233.602C193.473,239.768 219.44,243.236 234.439,243.236C219.44,243.236 193.473,246.704 187.308,252.869C181.143,259.034 177.675,285.001 177.675,300C177.675,285.001 174.207,259.034 168.041,252.869C161.876,246.704 135.909,243.236 120.91,243.236C135.909,243.236 161.876,239.768 168.041,233.602C174.207,227.437 177.675,201.47 177.675,186.471Z" style="fill:white;"/>
            </g>
            <g transform="matrix(0.311118,-0.179624,0.179624,0.311118,565.011,176.841)">
                <path d="M177.675,186.471C177.675,201.47 181.143,227.437 187.308,233.602C193.473,239.768 219.44,243.236 234.439,243.236C219.44,243.236 193.473,246.704 187.308,252.869C181.143,259.034 177.675,285.001 177.675,300C177.675,285.001 174.207,259.034 168.041,252.869C161.876,246.704 135.909,243.236 120.91,243.236C135.909,243.236 161.876,239.768 168.041,233.602C174.207,227.437 177.675,201.47 177.675,186.471Z" style="fill:white;"/>
            </g>
            <g transform="matrix(0.172189,-0.0994134,0.0994134,0.172189,309.079,0.0588737)">
                <path d="M177.675,186.471C177.675,201.47 181.143,227.437 187.308,233.602C193.473,239.768 219.44,243.236 234.439,243.236C219.44,243.236 193.473,246.704 187.308,252.869C181.143,259.034 177.675,285.001 177.675,300C177.675,285.001 174.207,259.034 168.041,252.869C161.876,246.704 135.909,243.236 120.91,243.236C135.909,243.236 161.876,239.768 168.041,233.602C174.207,227.437 177.675,201.47 177.675,186.471Z" style="fill:white;"/>
            </g>
        </g>
        <g transform="matrix(1,0,0,1,349.189,303.87)">
            <g transform="matrix(144,0,0,144,122.156,257.498)">
                <path d="M0.364,0L0.364,-0.137L0.055,-0.137L0.021,-0.224L0.236,-0.743L0.434,-0.743L0.252,-0.301L0.364,-0.301L0.364,-0.411L0.401,-0.507L0.558,-0.507L0.558,-0.301L0.618,-0.301L0.618,-0.167L0.558,-0.137L0.558,0L0.364,0Z" style="fill:white;fill-rule:nonzero;"/>
            </g>
            <g transform="matrix(144,0,0,144,213.596,257.498)">
                <path d="M0.243,0.006C0.198,0.006 0.16,-0.002 0.13,-0.018C0.099,-0.034 0.077,-0.057 0.062,-0.087C0.047,-0.118 0.04,-0.154 0.04,-0.196L0.04,-0.537C0.04,-0.583 0.048,-0.622 0.064,-0.653C0.079,-0.684 0.102,-0.708 0.133,-0.725C0.164,-0.741 0.201,-0.749 0.244,-0.749L0.406,-0.749C0.448,-0.749 0.484,-0.741 0.513,-0.725C0.542,-0.708 0.564,-0.684 0.579,-0.653C0.594,-0.622 0.601,-0.583 0.601,-0.537L0.601,-0.196C0.601,-0.133 0.584,-0.084 0.551,-0.048C0.517,-0.012 0.468,0.006 0.405,0.006L0.243,0.006ZM0.291,-0.168L0.351,-0.168C0.369,-0.168 0.383,-0.172 0.393,-0.182C0.402,-0.191 0.407,-0.205 0.407,-0.226L0.407,-0.517C0.407,-0.54 0.402,-0.556 0.393,-0.564C0.384,-0.571 0.372,-0.575 0.359,-0.575L0.284,-0.575C0.267,-0.575 0.254,-0.57 0.246,-0.561C0.238,-0.552 0.234,-0.537 0.234,-0.517L0.234,-0.227C0.234,-0.206 0.239,-0.191 0.248,-0.182C0.257,-0.172 0.272,-0.168 0.291,-0.168Z" style="fill:white;fill-rule:nonzero;"/>
            </g>
            <g transform="matrix(144,0,0,144,305.9,257.498)">
                <path d="M0.364,0L0.364,-0.137L0.055,-0.137L0.021,-0.224L0.236,-0.743L0.434,-0.743L0.252,-0.301L0.364,-0.301L0.364,-0.411L0.401,-0.507L0.558,-0.507L0.558,-0.301L0.618,-0.301L0.618,-0.167L0.558,-0.137L0.558,0L0.364,0Z" style="fill:white;fill-rule:nonzero;"/>
            </g>
        </g>
        <g>
            <circle cx="97.948" cy="398.812" r="2.463" style="fill:white;"/>
            <g transform="matrix(1,0,0,1,118.597,-117.045)">
                <circle cx="97.948" cy="398.812" r="2.463" style="fill:white;"/>
            </g>
            <g transform="matrix(0.124057,-0.992275,0.992275,0.124057,-81.933,579.85)">
                <circle cx="97.948" cy="398.812" r="2.463" style="fill:white;"/>
            </g>
            <g transform="matrix(-0.846133,0.532971,-0.532971,-0.846133,854.646,663.452)">
                <circle cx="97.948" cy="398.812" r="2.463" style="fill:white;"/>
            </g>
            <g transform="matrix(-0.0616836,-0.998096,0.998096,-0.0616836,178.427,348.513)">
                <circle cx="97.948" cy="398.812" r="2.463" style="fill:white;"/>
            </g>
            <g transform="matrix(-0.0201973,0.999796,-0.999796,-0.0201973,752.949,30.4322)">
                <circle cx="97.948" cy="398.812" r="2.463" style="fill:white;"/>
            </g>
            <g transform="matrix(1,0,0,1,30.4255,-91.2764)">
                <circle cx="97.948" cy="398.812" r="2.463" style="fill:white;"/>
            </g>
            <g transform="matrix(-0.846133,0.532971,-0.532971,-0.846133,901.029,628.806)">
                <circle cx="97.948" cy="398.812" r="2.463" style="fill:white;"/>
            </g>
            <g transform="matrix(-0.0201973,0.999796,-0.999796,-0.0201973,749.521,-27.36)">
                <circle cx="97.948" cy="398.812" r="2.463" style="fill:white;"/>
            </g>
            <g transform="matrix(1,0,0,1,102.143,-4.9268)">
                <circle cx="97.948" cy="398.812" r="2.463" style="fill:white;"/>
            </g>
            <g transform="matrix(1,0,0,1,107.069,-72.9184)">
                <circle cx="97.948" cy="398.812" r="2.463" style="fill:white;"/>
            </g>
            <g transform="matrix(0.124057,-0.992275,0.992275,0.124057,-39.5774,596.763)">
                <circle cx="97.948" cy="398.812" r="2.463" style="fill:white;"/>
            </g>
            <g transform="matrix(-0.846133,0.532971,-0.532971,-0.846133,820.184,595.651)">
                <circle cx="97.948" cy="398.812" r="2.463" style="fill:white;"/>
            </g>
            <g transform="matrix(0.423885,0.905716,-0.905716,0.423885,698.239,20.845)">
                <circle cx="97.948" cy="398.812" r="2.463" style="fill:white;"/>
            </g>
            <g transform="matrix(-0.0201973,0.999796,-0.999796,-0.0201973,677.37,21.9274)">
                <circle cx="97.948" cy="398.812" r="2.463" style="fill:white;"/>
            </g>
            <g transform="matrix(1,0,0,1,66.0882,-40.6301)">
                <circle cx="97.948" cy="398.812" r="2.463" style="fill:white;"/>
            </g>
            <g transform="matrix(-0.846133,0.532971,-0.532971,-0.846133,825.111,607.03)">
                <circle cx="97.948" cy="398.812" r="2.463" style="fill:white;"/>
            </g>
            <g transform="matrix(-0.0616836,-0.998096,0.998096,-0.0616836,199.701,417.498)">
                <circle cx="97.948" cy="398.812" r="2.463" style="fill:white;"/>
            </g>
            <g transform="matrix(0.423885,0.905716,-0.905716,0.423885,724.196,-31.3789)">
                <circle cx="97.948" cy="398.812" r="2.463" style="fill:white;"/>
            </g>
            <g transform="matrix(-0.998038,-0.0626141,0.0626141,-0.998038,808.254,635.241)">
                <circle cx="97.948" cy="398.812" r="2.463" style="fill:white;"/>
            </g>
            <g transform="matrix(-0.0201973,0.999796,-0.999796,-0.0201973,689.582,24.0703)">
                <circle cx="97.948" cy="398.812" r="2.463" style="fill:white;"/>
            </g>
            <g transform="matrix(1,0,0,1,150.224,-67.9916)">
                <circle cx="97.948" cy="398.812" r="2.463" style="fill:white;"/>
            </g>
            <g transform="matrix(-0.479764,0.877398,-0.877398,-0.479764,1028.9,248.891)">
                <circle cx="97.948" cy="398.812" r="2.463" style="fill:white;"/>
            </g>
            <g transform="matrix(0.124057,-0.992275,0.992275,0.124057,-29.3351,554.553)">
                <circle cx="97.948" cy="398.812" r="2.463" style="fill:white;"/>
            </g>
            <g transform="matrix(0.811101,0.584906,-0.584906,0.811101,655.676,-307.015)">
                <circle cx="97.948" cy="398.812" r="2.463" style="fill:white;"/>
            </g>
            <g transform="matrix(-0.846133,0.532971,-0.532971,-0.846133,787.253,672.953)">
                <circle cx="97.948" cy="398.812" r="2.463" style="fill:white;"/>
            </g>
            <g transform="matrix(-0.0616836,-0.998096,0.998096,-0.0616836,202.423,284.824)">
                <circle cx="97.948" cy="398.812" r="2.463" style="fill:white;"/>
            </g>
            <g transform="matrix(-0.0201973,0.999796,-0.999796,-0.0201973,723.822,91.9437)">
                <circle cx="97.948" cy="398.812" r="2.463" style="fill:white;"/>
            </g>
            <g transform="matrix(1,0,0,1,126.318,-77.8452)">
                <circle cx="97.948" cy="398.812" r="2.463" style="fill:white;"/>
            </g>
            <g transform="matrix(0.124057,-0.992275,0.992275,0.124057,-10.3463,549.626)">
                <circle cx="97.948" cy="398.812" r="2.463" style="fill:white;"/>
            </g>
            <g transform="matrix(0.811101,0.584906,-0.584906,0.811101,650.889,-287.99)">
                <circle cx="97.948" cy="398.812" r="2.463" style="fill:white;"/>
            </g>
            <g transform="matrix(-0.846133,0.532971,-0.532971,-0.846133,789.717,628.806)">
                <circle cx="97.948" cy="398.812" r="2.463" style="fill:white;"/>
            </g>
            <g transform="matrix(-0.0616836,-0.998096,0.998096,-0.0616836,239.976,308.166)">
                <circle cx="97.948" cy="398.812" r="2.463" style="fill:white;"/>
            </g>
            <g transform="matrix(0.423885,0.905716,-0.905716,0.423885,741.414,6.44351)">
                <circle cx="97.948" cy="398.812" r="2.463" style="fill:white;"/>
            </g>
            <g transform="matrix(-0.0201973,0.999796,-0.999796,-0.0201973,688.305,65.6076)">
                <circle cx="97.948" cy="398.812" r="2.463" style="fill:white;"/>
            </g>
            <g transform="matrix(1,0,0,1,213.248,-130.003)">
                <circle cx="97.948" cy="398.812" r="2.463" style="fill:white;"/>
            </g>
            <g transform="matrix(0.124057,-0.992275,0.992275,0.124057,-83.049,484.323)">
                <circle cx="97.948" cy="398.812" r="2.463" style="fill:white;"/>
            </g>
            <g transform="matrix(1,0,0,1,201.14,-63.0648)">
                <circle cx="97.948" cy="398.812" r="2.463" style="fill:white;"/>
            </g>
            <g transform="matrix(-0.479764,0.877398,-0.877398,-0.479764,1000.15,291.2)">
                <circle cx="97.948" cy="398.812" r="2.463" style="fill:white;"/>
            </g>
            <g transform="matrix(0.124057,-0.992275,0.992275,0.124057,-18.1298,504.642)">
                <circle cx="97.948" cy="398.812" r="2.463" style="fill:white;"/>
            </g>
            <g transform="matrix(1,0,0,1,47.4604,-160.24)">
                <circle cx="97.948" cy="398.812" r="2.463" style="fill:white;"/>
            </g>
            <g transform="matrix(-0.846133,0.532971,-0.532971,-0.846133,923.371,696.238)">
                <circle cx="97.948" cy="398.812" r="2.463" style="fill:white;"/>
            </g>
        </g>
    </g>
</svg>
