<?xml version="1.0" encoding="UTF-8" standalone="no"?>
<!DOCTYPE svg PUBLIC "-//W3C//DTD SVG 1.1//EN" "http://www.w3.org/Graphics/SVG/1.1/DTD/svg11.dtd">
<svg width="100%" height="100%" viewBox="0 0 189 48" version="1.1" xmlns="http://www.w3.org/2000/svg" xmlns:xlink="http://www.w3.org/1999/xlink" xml:space="preserve" xmlns:serif="http://www.serif.com/" style="fill-rule:evenodd;clip-rule:evenodd;stroke-linejoin:round;stroke-miterlimit:2;">
    <g id="Artboard1" transform="matrix(0.753007,0,0,0.799318,0,0)">
        <rect x="0" y="0" width="250.25" height="59" style="fill:none;"/>
        <g transform="matrix(1.32801,0,0,1.25107,-82.0883,-4.92749)">
<!--             <path d="M72.198,14.518C71.887,10.333 70.586,11.604 67.392,10.333C64.82,9.837 64.603,7.977 67.144,7.884C71.733,8.225 74.027,8.287 77.839,7.698C79.575,7.977 80.319,8.69 80.97,10.364C84.163,17.122 88.814,27.259 92.007,34.017C92.565,35.227 92.874,35.475 93.588,33.924L103.012,9.837C104.067,7.791 105.213,7.295 108.499,7.605C114.172,7.698 115.567,7.543 118.357,7.233C120.775,7.326 120.62,9.186 118.233,9.837C114.575,9.868 112.653,11.108 112.094,13.836L112.621,41.489C113.21,45.612 115.349,45.736 119.193,46.728C120.928,47.503 120.556,48.712 119.069,49.115C111.04,48.185 108.25,48.247 100.283,49.022C97.989,49.239 97.834,47.255 100.314,46.728C103.258,46.077 104.002,45.55 104.654,44L104.065,17.339C103.971,16.285 103.321,16.285 102.918,17.525L91.667,45.643C90.612,48.03 90.148,48.03 89,46.17L75.701,17.37C75.298,16.378 74.802,16.688 74.74,17.308L74.864,42.729C75.236,45.674 77.282,45.86 81.435,47.162C82.614,47.534 82.675,48.526 81.714,49.146C73.592,48.464 72.29,48.464 64.757,49.425C63.579,49.425 63.022,47.689 64.85,47.441C68.849,46.294 69.934,46.232 70.524,43.938L72.198,14.518M117.955,34.917C119.164,22.764 129.24,19.912 134.417,19.881C140.555,20.067 142.508,22.082 142.57,24.128C142.632,26.174 141.174,27.259 139.593,26.825C136.214,25.957 136.865,22.392 132.37,22.113C127.285,22.857 124.216,28.561 125.084,35.381C125.952,42.202 132.556,47.286 140.616,43.132C142.569,42.698 142.723,44.31 141.142,45.426C126.325,54.54 117.335,41.551 117.955,34.917ZM145.825,27.414C147.189,12.813 156.551,6.706 169.726,5.621C183.615,5.714 185.598,6.644 185.413,14.394C185.506,17.184 183.646,17.835 182.344,14.673C180.857,11.821 179.616,10.178 176.082,8.721C164.115,6.024 155.249,13.712 154.722,26.794C153.885,45.24 174.533,50.634 178.81,43.752C179.709,41.954 179.709,37.18 179.585,33.242C178.841,30.638 176.361,30.886 173.943,30.793C171.339,30.979 170.409,28.034 173.912,28.065C177.291,28.065 183.801,28.375 192.171,27.6C194.651,27.693 194.837,29.956 191.799,30.297C190.497,30.545 187.738,30.514 187.366,32.685C187.055,43.907 189.66,44.992 181.197,48.061C170.409,50.603 158.783,49.425 152.211,43.07C149.266,40.466 145.577,34.483 145.825,27.414ZM199.611,30.576C199.456,28.902 199.239,27.6 197.317,27.042C195.953,26.918 195.301,25.678 197.254,24.934C201.16,23.663 201.718,23.446 204.726,21.028C205.656,20.532 206.742,20.935 206.214,22.609C205.997,23.88 206.028,24.469 205.935,25.833L205.966,42.946C206.121,45.736 208.291,46.201 209.687,46.759C211.082,47.317 211.206,48.96 209.563,48.991C203.486,48.154 202.154,48.061 196.293,49.239C194.34,49.27 193.906,47.782 196.324,46.914C198.742,46.046 199.548,45.643 199.672,43.566L199.611,30.576ZM217.189,43.504C217.034,45.054 216.321,46.077 213.407,46.883C211.113,47.627 211.391,48.836 213.717,48.929C219.979,48.031 221.932,48.185 227.543,48.805C229.744,48.774 229.372,47.348 228.008,46.697C224.722,45.426 224.195,45.395 223.544,42.14L223.296,9.279C223.296,7.388 224.009,5.187 221.994,5.683C218.243,7.171 217.932,7.295 214.523,8.473C212.724,9.248 213.407,10.116 214.709,10.55C216.538,11.294 216.693,12.41 216.786,13.743L217.189,43.504ZM236.471,43.69C236.317,45.24 235.604,46.263 232.69,47.069C230.395,47.813 230.674,49.022 233,49.115C239.263,48.216 241.215,48.371 246.827,48.991C249.028,48.96 248.656,47.534 247.292,46.883C244.006,45.612 243.478,45.581 242.828,42.326L242.58,9.465C242.58,7.574 243.292,5.373 241.277,5.869C237.526,7.357 237.215,7.481 233.805,8.659C232.007,9.434 232.69,10.302 233.992,10.736C235.821,11.48 235.975,12.596 236.069,13.929L236.471,43.69ZM202.96,6.179C204.882,6.179 206.494,7.76 206.494,9.713C206.494,11.666 204.882,13.278 202.96,13.278C201.037,13.278 199.456,11.666 199.456,9.713C199.456,7.76 201.037,6.179 202.96,6.179Z" style="fill:rgb(239,62,51);"/>
 -->            <path d="M72.198,14.518C71.887,10.333 70.586,11.604 67.392,10.333C64.82,9.837 64.603,7.977 67.144,7.884C71.733,8.225 74.027,8.287 77.839,7.698C79.575,7.977 80.319,8.69 80.97,10.364C84.163,17.122 88.814,27.259 92.007,34.017C92.565,35.227 92.874,35.475 93.588,33.924L103.012,9.837C104.067,7.791 105.213,7.295 108.499,7.605C114.172,7.698 115.567,7.543 118.357,7.233C120.775,7.326 120.62,9.186 118.233,9.837C114.575,9.868 112.653,11.108 112.094,13.836L112.621,41.489C113.21,45.612 115.349,45.736 119.193,46.728C120.928,47.503 120.556,48.712 119.069,49.115C111.04,48.185 108.25,48.247 100.283,49.022C97.989,49.239 97.834,47.255 100.314,46.728C103.258,46.077 104.002,45.55 104.654,44L104.065,17.339C103.971,16.285 103.321,16.285 102.918,17.525L91.667,45.643C90.612,48.03 90.148,48.03 89,46.17L75.701,17.37C75.298,16.378 74.802,16.688 74.74,17.308L74.864,42.729C75.236,45.674 77.282,45.86 81.435,47.162C82.614,47.534 82.675,48.526 81.714,49.146C73.592,48.464 72.29,48.464 64.757,49.425C63.579,49.425 63.022,47.689 64.85,47.441C68.849,46.294 69.934,46.232 70.524,43.938L72.198,14.518M117.955,34.917C119.164,22.764 129.24,19.912 134.417,19.881C140.555,20.067 142.508,22.082 142.57,24.128C142.632,26.174 141.174,27.259 139.593,26.825C136.214,25.957 136.865,22.392 132.37,22.113C127.285,22.857 124.216,28.561 125.084,35.381C125.952,42.202 132.556,47.286 140.616,43.132C142.569,42.698 142.723,44.31 141.142,45.426C126.325,54.54 117.335,41.551 117.955,34.917ZM145.825,27.414C147.189,12.813 156.551,6.706 169.726,5.621C183.615,5.714 185.598,6.644 185.413,14.394C185.506,17.184 183.646,17.835 182.344,14.673C180.857,11.821 179.616,10.178 176.082,8.721C164.115,6.024 155.249,13.712 154.722,26.794C153.885,45.24 174.533,50.634 178.81,43.752C179.709,41.954 179.709,37.18 179.585,33.242C178.841,30.638 176.361,30.886 173.943,30.793C171.339,30.979 170.409,28.034 173.912,28.065C177.291,28.065 183.801,28.375 192.171,27.6C194.651,27.693 194.837,29.956 191.799,30.297C190.497,30.545 187.738,30.514 187.366,32.685C187.055,43.907 189.66,44.992 181.197,48.061C170.409,50.603 158.783,49.425 152.211,43.07C149.266,40.466 145.577,34.483 145.825,27.414ZM199.611,30.576C199.456,28.902 199.239,27.6 197.317,27.042C195.953,26.918 195.301,25.678 197.254,24.934C201.16,23.663 201.718,23.446 204.726,21.028C205.656,20.532 206.742,20.935 206.214,22.609C205.997,23.88 206.028,24.469 205.935,25.833L205.966,42.946C206.121,45.736 208.291,46.201 209.687,46.759C211.082,47.317 211.206,48.96 209.563,48.991C203.486,48.154 202.154,48.061 196.293,49.239C194.34,49.27 193.906,47.782 196.324,46.914C198.742,46.046 199.548,45.643 199.672,43.566L199.611,30.576ZM217.189,43.504C217.034,45.054 216.321,46.077 213.407,46.883C211.113,47.627 211.391,48.836 213.717,48.929C219.979,48.031 221.932,48.185 227.543,48.805C229.744,48.774 229.372,47.348 228.008,46.697C224.722,45.426 224.195,45.395 223.544,42.14L223.296,9.279C223.296,7.388 224.009,5.187 221.994,5.683C218.243,7.171 217.932,7.295 214.523,8.473C212.724,9.248 213.407,10.116 214.709,10.55C216.538,11.294 216.693,12.41 216.786,13.743L217.189,43.504ZM236.471,43.69C236.317,45.24 235.604,46.263 232.69,47.069C230.395,47.813 230.674,49.022 233,49.115C239.263,48.216 241.215,48.371 246.827,48.991C249.028,48.96 248.656,47.534 247.292,46.883C244.006,45.612 243.478,45.581 242.828,42.326L242.58,9.465C242.58,7.574 243.292,5.373 241.277,5.869C237.526,7.357 237.215,7.481 233.805,8.659C232.007,9.434 232.69,10.302 233.992,10.736C235.821,11.48 235.975,12.596 236.069,13.929L236.471,43.69ZM202.96,6.179C204.882,6.179 206.494,7.76 206.494,9.713C206.494,11.666 204.882,13.278 202.96,13.278C201.037,13.278 199.456,11.666 199.456,9.713C199.456,7.76 201.037,6.179 202.96,6.179Z" style="fill:#ed1b2f;"/>
        </g>
    </g>
</svg>
